<mxfile host="app.diagrams.net" agent="Mozilla/5.0 (Windows NT 10.0; Win64; x64) AppleWebKit/537.36 (KHTML, like Gecko) Chrome/129.0.0.0 Safari/537.36" version="24.7.17">
  <diagram id="e2Rw1AW0h8iTklzgxwq3" name="Page-1">
    <mxGraphModel dx="1434" dy="892" grid="1" gridSize="10" guides="1" tooltips="1" connect="1" arrows="1" fold="1" page="1" pageScale="1" pageWidth="850" pageHeight="1100" math="0" shadow="0">
      <root>
        <mxCell id="0" />
        <mxCell id="1" parent="0" />
        <mxCell id="ab4ljPZV0jzLuq_UtkrS-1" value="admin" style="shape=umlActor;verticalLabelPosition=bottom;verticalAlign=top;html=1;" parent="1" vertex="1">
          <mxGeometry x="60" y="390" width="80" height="250" as="geometry" />
        </mxCell>
        <mxCell id="ab4ljPZV0jzLuq_UtkrS-3" value="" style="rounded=0;whiteSpace=wrap;html=1;" parent="1" vertex="1">
          <mxGeometry x="280" y="160" width="340" height="660" as="geometry" />
        </mxCell>
        <mxCell id="ab4ljPZV0jzLuq_UtkrS-4" value="login/logout" style="ellipse;whiteSpace=wrap;html=1;" parent="1" vertex="1">
          <mxGeometry x="305" y="190" width="120" height="40" as="geometry" />
        </mxCell>
        <mxCell id="ab4ljPZV0jzLuq_UtkrS-5" value="register" style="ellipse;whiteSpace=wrap;html=1;" parent="1" vertex="1">
          <mxGeometry x="305" y="700" width="120" height="50" as="geometry" />
        </mxCell>
        <mxCell id="ab4ljPZV0jzLuq_UtkrS-6" value="Manage product details" style="ellipse;whiteSpace=wrap;html=1;" parent="1" vertex="1">
          <mxGeometry x="305" y="460" width="120" height="40" as="geometry" />
        </mxCell>
        <mxCell id="ab4ljPZV0jzLuq_UtkrS-7" value="manage user accounts" style="ellipse;whiteSpace=wrap;html=1;" parent="1" vertex="1">
          <mxGeometry x="305" y="380" width="120" height="40" as="geometry" />
        </mxCell>
        <mxCell id="ab4ljPZV0jzLuq_UtkrS-8" value="print report" style="ellipse;whiteSpace=wrap;html=1;" parent="1" vertex="1">
          <mxGeometry x="305" y="550" width="120" height="40" as="geometry" />
        </mxCell>
        <mxCell id="ab4ljPZV0jzLuq_UtkrS-9" value="manage sales" style="ellipse;whiteSpace=wrap;html=1;" parent="1" vertex="1">
          <mxGeometry x="300" y="310" width="120" height="40" as="geometry" />
        </mxCell>
        <mxCell id="ab4ljPZV0jzLuq_UtkrS-11" value="crud order" style="ellipse;whiteSpace=wrap;html=1;" parent="1" vertex="1">
          <mxGeometry x="310" y="250" width="115" height="40" as="geometry" />
        </mxCell>
        <mxCell id="ab4ljPZV0jzLuq_UtkrS-12" value="" style="endArrow=none;html=1;rounded=0;exitX=1;exitY=0.3333333333333333;exitDx=0;exitDy=0;exitPerimeter=0;" parent="1" source="ab4ljPZV0jzLuq_UtkrS-1" edge="1">
          <mxGeometry width="50" height="50" relative="1" as="geometry">
            <mxPoint x="140" y="480" as="sourcePoint" />
            <mxPoint x="310" y="220" as="targetPoint" />
          </mxGeometry>
        </mxCell>
        <mxCell id="ab4ljPZV0jzLuq_UtkrS-13" value="" style="endArrow=none;html=1;rounded=0;entryX=0.252;entryY=0.975;entryDx=0;entryDy=0;entryPerimeter=0;exitX=1;exitY=0.3333333333333333;exitDx=0;exitDy=0;exitPerimeter=0;" parent="1" source="ab4ljPZV0jzLuq_UtkrS-1" target="ab4ljPZV0jzLuq_UtkrS-11" edge="1">
          <mxGeometry width="50" height="50" relative="1" as="geometry">
            <mxPoint x="150" y="483" as="sourcePoint" />
            <mxPoint x="330" y="228" as="targetPoint" />
          </mxGeometry>
        </mxCell>
        <mxCell id="ab4ljPZV0jzLuq_UtkrS-14" value="" style="endArrow=none;html=1;rounded=0;entryX=0.208;entryY=0.875;entryDx=0;entryDy=0;entryPerimeter=0;exitX=1;exitY=0.3333333333333333;exitDx=0;exitDy=0;exitPerimeter=0;" parent="1" source="ab4ljPZV0jzLuq_UtkrS-1" target="ab4ljPZV0jzLuq_UtkrS-9" edge="1">
          <mxGeometry width="50" height="50" relative="1" as="geometry">
            <mxPoint x="160" y="493" as="sourcePoint" />
            <mxPoint x="340" y="238" as="targetPoint" />
          </mxGeometry>
        </mxCell>
        <mxCell id="ab4ljPZV0jzLuq_UtkrS-15" value="" style="endArrow=none;html=1;rounded=0;exitX=1;exitY=0.3333333333333333;exitDx=0;exitDy=0;exitPerimeter=0;" parent="1" source="ab4ljPZV0jzLuq_UtkrS-1" target="ab4ljPZV0jzLuq_UtkrS-7" edge="1">
          <mxGeometry width="50" height="50" relative="1" as="geometry">
            <mxPoint x="150" y="483" as="sourcePoint" />
            <mxPoint x="335" y="355" as="targetPoint" />
          </mxGeometry>
        </mxCell>
        <mxCell id="ab4ljPZV0jzLuq_UtkrS-16" value="" style="endArrow=none;html=1;rounded=0;exitX=1;exitY=0.3333333333333333;exitDx=0;exitDy=0;exitPerimeter=0;entryX=0;entryY=0.5;entryDx=0;entryDy=0;" parent="1" source="ab4ljPZV0jzLuq_UtkrS-1" target="ab4ljPZV0jzLuq_UtkrS-6" edge="1">
          <mxGeometry width="50" height="50" relative="1" as="geometry">
            <mxPoint x="150" y="483" as="sourcePoint" />
            <mxPoint x="332" y="424" as="targetPoint" />
          </mxGeometry>
        </mxCell>
        <mxCell id="ab4ljPZV0jzLuq_UtkrS-17" value="" style="endArrow=none;html=1;rounded=0;entryX=0.025;entryY=0.325;entryDx=0;entryDy=0;entryPerimeter=0;" parent="1" target="ab4ljPZV0jzLuq_UtkrS-8" edge="1">
          <mxGeometry width="50" height="50" relative="1" as="geometry">
            <mxPoint x="140" y="470" as="sourcePoint" />
            <mxPoint x="315" y="490" as="targetPoint" />
          </mxGeometry>
        </mxCell>
        <mxCell id="ab4ljPZV0jzLuq_UtkrS-19" value="" style="endArrow=none;html=1;rounded=0;entryX=0.058;entryY=0.5;entryDx=0;entryDy=0;exitX=1;exitY=0.3333333333333333;exitDx=0;exitDy=0;exitPerimeter=0;entryPerimeter=0;" parent="1" source="ab4ljPZV0jzLuq_UtkrS-1" target="ab4ljPZV0jzLuq_UtkrS-5" edge="1">
          <mxGeometry width="50" height="50" relative="1" as="geometry">
            <mxPoint x="150" y="483" as="sourcePoint" />
            <mxPoint x="310" y="665" as="targetPoint" />
          </mxGeometry>
        </mxCell>
        <mxCell id="ab4ljPZV0jzLuq_UtkrS-22" value="" style="group" parent="1" vertex="1" connectable="0">
          <mxGeometry x="300" y="640" width="120" height="30" as="geometry" />
        </mxCell>
        <mxCell id="ab4ljPZV0jzLuq_UtkrS-10" value="Add supplier details" style="ellipse;whiteSpace=wrap;html=1;" parent="ab4ljPZV0jzLuq_UtkrS-22" vertex="1">
          <mxGeometry width="120" height="30" as="geometry" />
        </mxCell>
        <mxCell id="ab4ljPZV0jzLuq_UtkrS-18" value="" style="endArrow=none;html=1;rounded=0;entryX=0;entryY=0.5;entryDx=0;entryDy=0;exitX=1;exitY=0.3333333333333333;exitDx=0;exitDy=0;exitPerimeter=0;" parent="ab4ljPZV0jzLuq_UtkrS-22" source="ab4ljPZV0jzLuq_UtkrS-1" target="ab4ljPZV0jzLuq_UtkrS-10" edge="1">
          <mxGeometry width="50" height="50" relative="1" as="geometry">
            <mxPoint x="-150" y="-160" as="sourcePoint" />
            <mxPoint x="18" y="-67" as="targetPoint" />
          </mxGeometry>
        </mxCell>
        <mxCell id="ab4ljPZV0jzLuq_UtkrS-25" value="Add product units" style="ellipse;whiteSpace=wrap;html=1;" parent="1" vertex="1">
          <mxGeometry x="425" y="500" width="120" height="40" as="geometry" />
        </mxCell>
        <mxCell id="ab4ljPZV0jzLuq_UtkrS-26" value="" style="endArrow=none;html=1;rounded=0;entryX=0;entryY=0.5;entryDx=0;entryDy=0;" parent="1" target="ab4ljPZV0jzLuq_UtkrS-25" edge="1">
          <mxGeometry width="50" height="50" relative="1" as="geometry">
            <mxPoint x="140" y="470" as="sourcePoint" />
            <mxPoint x="450" y="580" as="targetPoint" />
          </mxGeometry>
        </mxCell>
        <mxCell id="jMPZi_4oomUUkjY6u8mG-3" value="" style="group" vertex="1" connectable="0" parent="1">
          <mxGeometry x="150" y="477.0033333333333" width="440" height="152.99666666666673" as="geometry" />
        </mxCell>
        <mxCell id="jMPZi_4oomUUkjY6u8mG-1" value="manage&amp;nbsp;&lt;div&gt;stock&lt;/div&gt;" style="ellipse;whiteSpace=wrap;html=1;" vertex="1" parent="jMPZi_4oomUUkjY6u8mG-3">
          <mxGeometry x="330" y="72.99666666666673" width="120" height="50" as="geometry" />
        </mxCell>
        <mxCell id="jMPZi_4oomUUkjY6u8mG-2" value="" style="endArrow=none;html=1;rounded=0;exitX=1;exitY=0.3333333333333333;exitDx=0;exitDy=0;exitPerimeter=0;" edge="1" parent="jMPZi_4oomUUkjY6u8mG-3" target="jMPZi_4oomUUkjY6u8mG-1">
          <mxGeometry width="50" height="50" relative="1" as="geometry">
            <mxPoint as="sourcePoint" />
            <mxPoint x="330" y="146.66666666666669" as="targetPoint" />
          </mxGeometry>
        </mxCell>
        <mxCell id="jMPZi_4oomUUkjY6u8mG-4" value="Add product price" style="ellipse;whiteSpace=wrap;html=1;" vertex="1" parent="1">
          <mxGeometry x="450" y="400" width="120" height="50" as="geometry" />
        </mxCell>
        <mxCell id="jMPZi_4oomUUkjY6u8mG-5" value="" style="endArrow=none;html=1;rounded=0;" edge="1" parent="1">
          <mxGeometry width="50" height="50" relative="1" as="geometry">
            <mxPoint x="150" y="470" as="sourcePoint" />
            <mxPoint x="450" y="430" as="targetPoint" />
          </mxGeometry>
        </mxCell>
      </root>
    </mxGraphModel>
  </diagram>
</mxfile>
